<?xml version="1.0" encoding="utf-8"?>

<!DOCTYPE svg PUBLIC "-//W3C//DTD SVG 1.1//EN" "http://www.w3.org/Graphics/SVG/1.1/DTD/svg11.dtd">
<svg style="fill:white" version="1.1" id="Layer_1" xmlns="http://www.w3.org/2000/svg" xmlns:xlink="http://www.w3.org/1999/xlink" x="0px" y="0px"
	 viewBox="0 0 1991.631 1649.646" enable-background="new 0 0 1991.631 1649.646" xml:space="preserve">
<g>
	<path d="M447.745,606.794c-18.665,58.111-12.864,43.997-39.677,87.522c-86.46,140.353-46.062,58.872-23.978,213.074
		c3.785,26.432-86.751,66.615-91.099,79.181c-22.57,65.222-18.029,87.03-38.378,127.517
		c-20.269,40.33,33.318,173.079,38.122,220.877c9.413,93.647-28.353,135.676-15.735,160.117c30.293,58.676-38.685,98.78-50.32-1.583
		c-1.485-12.814-11.886-12.133-17.701-48.441c-8.581-53.583-9.317-108.732-17.309-139.462c-3.512-13.504-19.306-63.205-29.596-52.86
		c-48.707,48.968-1.367,18.141,0.724,225.894c0.225,22.314-5.452,48.963-27.846,47.41c-29.069-2.016,10.982-68.87-52.934-112.065
		c-11.737-7.932-18.033-19.002-19.65-33.341c-1.824-16.175-9.741-30.491-15.932-45.286c-17.966-42.935-31.171-31.939,59.494-220.576
		c4.205-8.749,7.306-89.146,7.157-104.66c-0.182-18.873-15.413-40.596-33.565-47.346c-44.961-16.721-54.861-51.262-46.304-62.219
		c38.913-49.825,43.969-56.691,54.311-60.482c51.88-19.017,63.32-70.472,105.18-77.859c35.454-6.256,68.451,17.222,62.249,96.703
		c-4.209,53.94-13.292,56.71-1.755,57.006c33.583,0.862,87.122-16.765,84.189-28.067c-11.842-45.621-6.428-35.145-17.061-47.162
		c-75.285-85.086-17.805-21.944,49.513-272.297c31.626-117.618,5.389-168.239,55.711-196.3
		c92.877-51.792,99.853-34.705,98.677-54.508c-0.705-11.867-1.248-48.742-10.828-63.649c-9.673-15.052-41.726-157.06,55.059-149.28
		c96.468,7.754,27.151,199.283,51.527,204.328c35.235,7.293,70.535,14.193,106.118,19.604
		c34.465,5.241,157.491,132.54,211.345,287.814c2.842,8.195,8.412,14.337,13.559,20.744c14.261,17.75,21.364,38.873,29.235,59.678
		c2.336,6.175-15.754,34.6-21.547,41.632c-8.971,10.89-13.881,8.367-19.632,4.247c-18.457-13.22-37.124-40.385-42.513-45.967
		c-8.33-8.628-7.714-15.052-12.913-65.019c-2.005-19.267-61.927-96.505-71.995-108.646c-16.88-20.356-38.195-35.567-60.447-49.536
		c-4.059-2.548-5.495-0.258-7.099,2.682c-22.285,40.855-18.245,59.313-22.864,144.638c-0.739,13.646,8.263,61.396,11.116,77.495
		c2.712,15.299,12.55,34.284-8.869,48.07c-20.527,13.213,3.814,14.552,27.321,239.522c19.116,182.938-2.081,592.053-2.081,592.053
		c20.881,30.834,7.707,52.736-14.081,45.42c-42.901-14.407-70.362-58.813-92.512-52.809c-5.399,1.464-7.825-235.201-10.085-283.058
		c-6.083-128.869,15.277-207.595-50.487-358.43c-0.636-1.458-0.887-3.423-3.085-4.391c-27.598,36.945-81.508,580.894-94.715,598.087
		c-3.638,4.736-4.112,4.156,1.282,50.727c1.217,10.509,1.576,10.681-7.876,14.88c-23.738,10.546-47.782,20.175-73.736,24.01
		c-18.185,2.687-37.329-1.892-31.579-19.219c5.901-17.782,30.878-38.976,32.013-107.281c2.09-125.83,0.668-288.031,4.079-333.32
		c18.231-242.106,32.166-354.741,35.175-427.479C447.794,611.955,451.377,615.035,447.745,606.794z M161.902,915.26
		c9.127-1.833,2.443-5.943-12.296-25.514c-3.043-4.041-1.968-3.433-31.698-2.605c-22.612,0.63-24.551,19.643-16.669,22.701
		C125.818,919.378,139.969,919.666,161.902,915.26z"/>
	<path d="M674.37,144.313c-1.192-8.896-26.452-30.393-23.895-33.369c1.891-2.201,4.261-0.208,6.13,1.169
		c8,5.893,24.767,18.348,24.767,18.348c12.56,9.202-8.514-22.075-4.872-32.972c3.68,2.194,49.78,61.178,60.183,44.28
		c7.398-12.018,2.915-13.763,2.604-22.71c-0.27-7.787,5.874-7.002,8.92-3.905c6.755,6.87,10.83,30.859,20.928,74.453
		c2.141,9.243,114.937,130.182,120.755,136.364c37.042,39.357,97.674,117.898,210.702,117.501c7.109-0.025,7.628-0.697,7.588-8.948
		c-0.046-9.502,2.271-8.838-36.251-8.184c-3.374,0.057-5.532-1.072-6.732-4.241c-26.164-69.078-38.427-156.015,33.889-172.102
		c83.227-18.515,140.349,27.804,111.141,161.387c-1.841,8.419-1.658,8.941-19.826,6.781c-9.117-1.084-8.419-0.802-8.417,11.186
		c0.003,11.106,1.17,11.937,11.964,9.73c93.424-19.103,178.599-104.802,236.555-181.064
		c101.317-133.317,84.589-103.302,90.553-135.988c23.371-128.097,21.266-34.548,26.441-32.347
		c2.533,1.077,35.713-32.967,47.841-61.469c0.661-1.553,1.167-3.789,3.31-3.33c4.935,1.057,0.062,20.707,4.116,24.115
		c9.068-9.649,19.745-49.478,13.899,24.567c-1.091,13.818,11.788-1.554,15.978,4.391c3.24,4.597-63.33,55.53-67.574,63.01
		c-30.468,53.695-66.741,103.544-101.95,154.109c-103.774,149.034-85.384,131.323-136.059,179.115
		c-25.486,24.036-19.136,14.56-26.949,33.185c-21.504,51.266-39.721,111.4-33.649,166.64c9.216,83.846-5.814,89.84,9.423,245.373
		c28.08,286.617-2.4,262.912,26.88,340.522c5.555,14.725,74.596,214.839,62.879,215.912c-27.338,2.504-28.057,2.919-28.975,7.127
		c-1.809,8.292-16.059-4.267-18.099,11.091c-1.746,13.143-7.214,31.597-21.133,35.076c-38.33,9.579-68.795,3.631-56.288-7.342
		c13.781-12.09,9.515-29.737,13.769-44.751c1.445-5.101-5.249-5.385-5.05-9.174c0.937-17.919-20.378-3.888-23.933-19.88
		c-12.672-57.001-96.776-413.058-116.006-469.501c0,0-8.391,81.784-48.192,372.149c-15.936,116.246-7.143,87.33-29.112,85.623
		c-3.345-0.26-6.208-0.064-4.559,4.588c0.417,1.178,0.683,2.818-0.411,3.152c-5.531,1.689-5.376,6.603-6.136,10.739
		c-2.758,15.01-10.669,28.099-15.47,42.339c-3.384,10.036-9.726,22.553-20.058,20.349c-33.045-7.051-37.063-9.838-37.928-14.244
		c-8.097-41.245-1.424-37.294,1.814-48.579c7.934-27.656-12.914-11.903-9.792-29.641c3.353-19.05,3.305-19.565-12.711-30.448
		c-19.464-13.226-12.458,1.719,9.601-201.776c18.683-172.353,16.782-226.023,25.543-267.231
		c42.663-200.67,113.228-240.767,67.932-327.024c-17.945-34.173-245.441-309.993-278.961-360.894
		c-15.85-24.068-52.243-56.264-91.297-69.788c-1-0.346-6.011-2.271-5.604-4.075c1.313-5.823,21.605,4.527,23.078,1.068
		c1.059-2.49-1.201-2.311-29.966-30.175c-4.273-4.139-0.166-6.684,3.417-4.448c5.918,3.693,11.81,7.429,17.743,11.098
		C670.644,142.357,672.53,143.298,674.37,144.313z"/>
	<path d="M1899.858,749.672c1.791,8.414,1.703,4.437,51.531,3.988c11.599-0.104,13.227,17.882,5.723,25.485
		c-3.598,3.646-9.226,7.03-5.196,14.25c4.449,7.969-51.436,3.669-58.898,10.575c-114.758,106.188-110.071,96.03-99.373,149.505
		c1.144,5.716,0.504,6.323-27.367,18.101c-7.871,3.326-5.216-3.766-0.854,117.038c0.855,23.686,5.372,26.831-4.296,36.932
		c-76.549,79.977-20.358-62.566-15.328,362.123c0.241,20.367-10.861,14.429-9.161,25.193c2.009,12.734-1.873,25.04-2.743,37.563
		c-0.644,9.262-29.387,12.888-38.942,13.538c-10.913,0.742,4.049-46.516-14.077-53.518c-6.127-2.367-9.612-9.131-16.472-10.808
		c-2.475-0.605-1.679-3.243-1.654-5.042c1.21-87.486-10.846-135.69-21.382-183.56c-4.877-22.163-25.66,65.162-28.534,122.395
		c-2.996,59.657,5.032,63.349-10.121,71.557c-10.743,5.82-8.448,12.219-13.904,13.39c-16.163,3.47-1.522,28.833-22.663,33.14
		c-14.575,2.969-30.462,15.99-30.798,3.802c-0.357-12.939-2.375-25.858,0.676-38.782c1.131-4.791,0.328-9.488-5.11-11.588
		c-5.125-1.979-5.674-8.88-11.353-10.32c-3.664-0.929,5.001-198.667,43.688-300.093c6.32-16.568-8.275-125.669-31.525-190.796
		c-4.571-12.805-14.107-15.14-24.027-18.415c-7.434-2.454-6.595-3.784-6.579-31.286c0.016-26.543-175.444-135.86-192.266-154.674
		c-6.954-7.78,23.155-0.259,19.387-10.484c-7.819-21.214-4.636-19.623,4.092-39.049c6.256-13.925,22.626,28.244,28.015,27.91
		c3.339-0.207,10.141-25.495,11.73-12.826c4.933,39.331,3.505,40.701,8.654,44.752c52.264,41.103,127.507,97.146,193.868,95.889
		c19.695-0.373,9.944-6.877,6.615-12.547c-29.819-50.793-3.07-22.969-4.725-39.651c-7.602-76.599,37.273-99.165,81.293-84.219
		c33.066,11.228,34.574,49.989,28.261,84.356c-2.792,15.201,23.592-12.331-1.389,42.241c-1.941,4.24-0.132,5.446,3.755,3.644
		C1771.736,860.759,1834.836,826.352,1899.858,749.672z"/>
</g>
</svg>
